<?xml version="1.0" encoding="UTF-8"?>
<svg id="Layer_1" data-name="Layer 1" xmlns="http://www.w3.org/2000/svg" version="1.1" viewBox="0 0 163.59 157.09">
  <defs>
    <style>
      .cls-1 {
        fill: #d3b38d;
      }

      .cls-1, .cls-2 {
        stroke-width: 0px;
      }

      .cls-2 {
        fill: #638068;
      }
    </style>
  </defs>
  <g>
    <path class="cls-2" d="M158.64,139.54c-6.32-2.31-14.8,1.93-21.86,2.22-6.15.53-12.47.13-18.63.52-24.06,1.34-46.83,6.67-70.69,9.67-8.34.99-16.9,1.74-25.23.53-3.86-.57-7.69-1.6-10.89-3.48-5.63-3.1-8.53-9.72-3.45-14.12,8.01-6.21,21.22-2.89,30.41-.43,8.46,2.4,16.59,5.62,25.03,7.45,5.05,1.17,10.37,1.05,15.04-1.32,6.53-3.3,12.97-8.91,19.76-12.58,14.37-8.31,22.75-20.66,31.69-34.2,9.54-13.61,25.48-35.13,18.23-52.24-.71-1.62-1.76-2.5-1.74.61-.01,3.62.66,8.57,0,12.59-1.69,10.92-7.39,20.7-13.36,29.86-6.48,10.14-16.24,17.45-24.97,25.59-17.56,16.62-30.21,20.85-49.71,3.7l-.07-.07c-7.33-6.99-14.99-13.54-21.84-21.05-5.86-6.91-11.09-14.85-14.93-23.12-1.71-3.98-3.01-9.03-4.27-11.9-1.27-2.78-1.73-.38-1.52,2.61.72,10.45,7.25,20.43,13.15,28.94,8.27,10.73,14.3,23.62,24.89,32.12,2.37,1.91,4.88,3.63,7.48,5.23,3.26,2.23,11.34,5.65,11.89,9.41-.65,3.71-10.19,1.6-12.87.89-8.4-2.27-16.6-5.54-25.05-7.58-8.49-1.99-17.54-3.36-25.92-.51-7.07,2.39-11.51,9.42-8,16.1,2.31,4.42,6.54,7.17,11.4,9.17,10.37,4.02,21.85,3.05,32.66,2.09,26-2.7,51.38-9.25,77.7-10.3,4.93-.15,10.07-.42,14.78,1.02,7.56,1.75,15.68,12.24,23.28,5.84,4.27-3.85,2.96-11.23-2.41-13.27ZM159.76,149.21c-.78,1.91-2.41,2.99-4.43,2.99-.44,0-.9-.05-1.37-.16-2.68-.6-4.03-2.74-3.51-5.59.36-1.98,1.88-3.22,4.17-3.41,3.47-.29,4.74,1.45,5.19,3,.45,1.05.43,2.14-.04,3.17Z"/>
    <path class="cls-2" d="M157.42,146.78c-.13-.47-.35-1.3-2.07-1.3-.16,0-.34,0-.54.02-1.71.14-1.88,1.08-1.93,1.38-.36,2.01.67,2.51,1.61,2.72,1.48.33,2.48-.13,2.97-1.36l.03-.07c.19-.41.19-.78,0-1.21l-.07-.19Z"/>
  </g>
  <g>
    <path class="cls-1" d="M30.05,30.36l-.02-.09c-.13-.66-.31-1.62-.75-2.39-.97-1.86-2.8-3.7-3.03-3.29-.12.27.06,1.12.12,1.57.82,5.55,6.7,12.94,5.02,7.75-.36-1.25-1-2.32-1.34-3.55Z"/>
    <path class="cls-1" d="M25.92,38.17c1.18-.17,1.31-3.83.57-6.14-.15-.49-.33-.79-.52-.74l-.04.02c-.26.15-.47.79-.6,1.16-1.74,4.83-3.46,6.57-.24,10.71.38.42.93,1.34,1.43,1.43.14-.05.05-.51-.16-1.04-.57-1.55-3.28-5.23-.44-5.4Z"/>
    <path class="cls-1" d="M19.25,30.46l-.07.07c-1.71,1.76-2.76,4.97-1.69,7.22.13.26.3.65.59.41,1.29-1.05,4.38-10.54,1.18-7.69Z"/>
    <path class="cls-1" d="M47.21,75.85l.02-.1c2.14-5.46-2.49-9.14-5.55-13.16-1.05-1.38-2.01-3.62-2.88-6.13-2.21-6.29-4.88-18.81-5.42-9.55.07.72.46,1.3.9,1.84,2.77,3.46,2.35,9.46,4.06,13.15.42.97,1.08,1.65,1.83,2.34,2.41,2.32,6.54,9.24,4.27,12.09-.45.59-1.86.49-2.09.78-.07.37.36.6.6.88,3.32,3.09,4.56,6.91,5.86,10.69.1.29.29.81.54.82.12,0,.25-.16.35-.43,1.5-4.66-3.21-8.38-2.46-13.23Z"/>
    <path class="cls-1" d="M81.8,45.48c2.25-3.22,2.2-12.07-.16-16.44-.86-1.17-.71-2.75-1.48-3.83-1.6-1.81-4.18-2.29-6.47-3.46-2.03-.98-3.88-2.22-4.33-4.52-.29-1.41.1-2.89.17-4.33.03-1.52-.26-3.16-1.14-4.39-28.67-22.59-51.92,3.89-54.16,31.63-.42,2.03-.4,4.17.64,6,.34.6.85,1.51,1.3.92.17-.32.14-.51.21-.92.03-1.11.43-2.13.93-3.09.33-.74.24-1.46-.05-2.26-2.84-6.12,1.9-12.66,5.37-17.27.76-1.02,1.31-2.25,1.95-3.31.61-1,1.26-1.87,1.58-3.12.34-1.23.18-2.66.22-3.96.07-2.11,1.09-3.83,2.62-5.35,2.71-2.67,6.86-4.09,10.59-4.16,8.71-2.39,18.25-1.83,25.51,4.05,2.65,1.82-1.43,1.51-1.63,3.31-.03.64.7.8,1.21.71.39-.05.79-.19,1.18-.25,1.27-.22,1.94,1.11,2.18,2.81-.25-1.21-1.06-2.07-2.56-1.76-.51.07-.99.39-1.16.89-.85,2.25,1.86,2.9,2.57,4.45.05.09.12.28.21.3h.04c.65-.84,1-2.02.99-3.09.09,1.27-.02,2.63-.27,3.68-.28,1.02.21,1.86,1.1,2.33,2.84,1.75,6.32,2.89,9.27,4.58,2.63,1.51-9.09-1.2-10.66,5.03-1.45,6.04,7.59,10.33,11.69,5.95,1.42-1.65,2.44-1.81,2.74.63.33,2-.37,8.37-3.16,7.24-4.45-2.97-11.57-.51-15.37,2.91l-.06.06c-4.54,6.55-16.05,2.29-19.9-3.1-1.96-2.01-5.78.65-5.46,3.23.18,2.85,3.81,4.28,3.69,7.43-.01,1.81-1.23,3.74-.69,5.47.45,1.23,2.24.53,3.81.94.88.21,1.48.97,2.29,1.31.82.39,1.99-.08,2.67.27.83.45,1.03,1.24,1.44,2.27.18.53.33,1.15.42,1.72.45,2.68-.39,4.9-.21,6.05.05.54.48.76.91.99.85.41,1,1.54,1.41,2.28.11.24.3.5.36.7.12.32.05.65-.05.98-1.25,3.7-2.8,11.72-1.41,14.87.42.97,1.67.72,2.57.71,4.23-.13,8.18,3.71,11.53,2.37.49-.18,1.04-.36,1.51-.14.63.24,1.08,1.23,1.66,1.21,1.4-.15,1.54-1.95,2.47-2.72.67-.56,1.97-.17,2.56-.93.37-.47.36-1.15.59-1.68.17-.44.6-.68,1.03-.88,5.59-2.62,11.57-9.6,9.79-15.65-.03-.95,1.32-.66,1.74-1.4.84-9.33-14.19-19.14-6.34-28.29ZM66.39,16.17c-.32,0-.58-.26-.58-.58s.26-.58.58-.58.58.26.58.58-.26.58-.58.58ZM71.47,34.18l-.04.03c-.66-.05-1.42-.79-1.82-1.34-1.83-2.88,7.7-4.79,5.64-2.49-.82.82-2.48.49-3.21,1.32-.34.35-.5.93-.49,1.74,0,.26.02.52-.09.75ZM75.09,34.46h-.07c-.68-.65-.55-1.53.08-2.3.44.18,1.05.69.97,1.18-.11.39-.67.87-.98,1.12ZM53.96,91.39c.11.22.26.43.46.62-.41-.06-.79-.19-.46-.62ZM54.53,53.48l-.09-.02c-1.07-.28-2.29-1.2-3.27-1.92-.3-.29.13-.17.51-.08,7.52,2.03,17.26,1.25,23.87-2.37-.93-.28-12.37,4.01-11.98,1.82,2.1-4.54,7.43-4.79,11.75-5.25,1.15-.21,3.15-.36,3.42,1.09.06.68-.74,1.36-1.28,2.08-4,6.45-15.79,4.31-22.94,4.65ZM66.82,93.26v-.02c.18-.35.71-.63,1.09-.59-.25.2-.8.47-1.09.61ZM82.1,63.75c.13,1.23,1.37,2.85,2.47,4.37.71,1.11,2.8,3.45.69,3.99l-.07.02c-.41.14-.75.24-.95.63-.61.85.96,3.87-.12,3.78-.84-.14-1.85-.76-2.12.51-.49,1.85.47,6.35-1.57,6.98-2.24.42-2.97-.47-3.6,2.38-.65,3.58-2.86,1.79-5.3,2.73-1.08.48-2.13,1.85-3.41,1.44-1.43-.59-1.48-3.27-2.83-3.67-.86-.34-2.75.6-3.72.1-.74-.8.85-2.17,1.46-2.69,1.37-1.05.82-1.43-.6-1.13-1.16.26-2.2.91-3.31,1.08-1.36.23-1.06-.75-.67-1.64,1.11-3.53-1.08-5.27,2.74-8.17.34-.3.66-.6-.02-.52-1,.08-3.42.99-3.72-.42-.07-.33,0-.74,0-1.11.07-1.9-2.27-1.57-.73-4.03.75-1.14,1.99-2.14,2.17-3.56.1-.25.67-.26,1.26-.73.16-.12.31-.27.45-.42.72-.76.91-1.95,1.3-2.9.11-.21.19-.38.39-.36.54.07,1.26,2.85,2.11,2.98,1,.04,1.06-1.68,1.28-2.41,1.37-6.76,8.55-8.65,13.01-4.96,2.05,1.54,3.45,4.89,3.42,7.75Z"/>
    <path class="cls-1" d="M47.44,37.68h-.05c-.16,0-.24.27-.29.43-.77,2.73,1.01,5.81,2.8,7.99.19.21.33.32.3-.01-.38-2.22-.93-4.73-2.36-7.81-.1-.2-.25-.52-.41-.6Z"/>
    <path class="cls-1" d="M35.17,26.82c.08.48.14.75.29,1.14.34.76.64.17,1.04-.57.43-.87.87-1.89,1.41-2.75.39-.69.9-1.1,1.35-1.62l.03-.06c.19-.83-.92-.59-1.45-.26-1.38.75-2.98,2.55-2.67,4.11Z"/>
    <path class="cls-1" d="M56.2,22.27c-.03-.05-.13,0-.27.1-.41.32-.84.77-1.12,1.28-1.64,2.84,2.85,5.26,3.61,4.11.34-.46-.25-.96-.71-1.13-2.26-1.03-2.15-2.06-1.51-4.33v-.03Z"/>
    <path class="cls-1" d="M44.74,13.43h-.09c-2.53-.35-3.87,1.67-4.23,3.92-.23,1.1-.5,2.41.58,3.08,6.73,3.52,14.2-5.5,3.75-7ZM45.13,17.15c-.11-.04-.19-.1-.25-.18.08.07.17.13.27.18h-.01ZM47.76,18.14c-.46,0-.83-.37-.83-.83s.37-.83.83-.83.83.37.83.83-.37.83-.83.83Z"/>
    <path class="cls-1" d="M36.22,13.53c-.08.24-.11.5-.14.75-.02.16-.03.32-.01.49,0,.17.03.33.11.48.05.15.14.29.26.4.11.12.25.21.4.26.15.08.31.11.48.11.32-.01.65-.12.88-.36.21-.23.39-.55.36-.88,0-.12,0-.24,0-.36.02-.08.04-.15.06-.22.05-.09.1-.18.16-.27.2-.24.32-.51.32-.83,0-.16-.03-.31-.1-.45.31,0,.61-.11.85-.35.14-.15.3-.28.45-.41.29-.21.6-.39.93-.55.36-.14.74-.25,1.13-.31.08,0,.17-.02.25-.02.65-.03,1.27-.55,1.24-1.24-.03-.64-.55-1.28-1.24-1.24-1.7.09-3.33.79-4.52,2.01-.33.34-.44.88-.28,1.33-.3.02-.62.12-.83.36-.35.4-.6.81-.77,1.32Z"/>
    <path class="cls-1" d="M145.2,35.02c-1.67-2.86-3.44-5.67-5.87-7.92-3.05-2.84-6.21-5.58-9.45-8.21-3.01-2.45-6.17-4.7-9.29-7.02-1.15-.85-2.28-1.77-3.54-2.41-1.69-.86-2.67-.37-3.1,1.47-.39,1.72-.55,3.5-.88,5.24-.13.68-.44,1.32-.68,2.01-2.35-1-4.46-1.92-6.6-2.78-1.33-.54-2.67-1.07-4.05-1.42-1.07-.28-1.53.31-1.23,1.37.22.8.45,1.61.78,2.37.44,1.01.99,1.97,1.49,2.96.1-.04.21-.07.31-.11-.03-.34-.03-.69-.1-1.03-.16-.79-.42-1.56-.5-2.35-.1-.95.31-1.29,1.13-.88,2.62,1.29,5.2,2.67,7.79,4.03.72.38.58.99.43,1.65-.51,2.08-2.21,3.14-3.79,4.12-3.01,1.87-5.96,3.78-8.58,6.21-2.25,2.09-3.41,4.63-3.43,7.7-.01,1.29.18,2.68-.22,3.86-.7,2.07-1.76,4.01-2.7,5.99-.62,1.31-1.57,2.46-1.31,4.1.36,2.22,1.68,3.69,3.4,4.91,1.47,1.04,2.91,2.12,4.44,3.05,1.19.72,2.46,1.59,3.76,1.74,2.79.33,5.6-.05,8.28-1,.71-.25,1.22-.11,1.6.52.35.59.64,1.21,1,1.79,1.05,1.68,2.1,3.35,3.19,5,.29.44.7.81,1.05,1.22.21-.26.22-.34.2-.41-.69-2.49-2.02-4.64-3.49-6.71-1.24-1.76-1.17-2.1.58-3.21.19-.12.42-.18.58-.32.63-.58,1.2-.38,1.75.11,2.54,2.28,5.09,4.54,7.59,6.85.99.91,1.82,1.99,2.79,2.93.46.45,1.08.74,1.62,1.1l.18-.23c-.2-.34-.35-.73-.6-1.02-2.99-3.53-5.8-7.22-9.73-9.83-.71-.47-1.82-.97-1.27-2.41-2.29.65-3.83-1.16-5.79-1.44.44.51.96.81,1.43,1.19.5.4.95.86,1.42,1.29-1.63,1.81-2.7,1.85-4.24.32-.41-.41-.88-.76-1.32-1.14-.11.1-.22.19-.33.29.54.87,1.08,1.73,1.66,2.65-1.48.98-3.05,1.24-4.74,1.26-4.41.03-8.07-1.59-11.09-4.76-.68-.71-.72-1.41-.17-2.29.64-1.02,1.2-2.12,1.61-3.26.41-1.14.18-1.36-1.01-1.45-1.72-.14-1.86-.4-.97-1.82.24-.37.5-.73.73-1.11,1.6-2.6,2.74-5.29,1.67-8.43-.08-.24-.13-.52-.1-.77.12-.86.03-1.91.49-2.55,1.1-1.55,2.39-3,3.75-4.33,2.53-2.48,5.56-4.19,8.78-5.63,1.62-.73,3.05-.58,4.73.08.26-.43.56-.93.87-1.44.12.47.23.92.37,1.46.42-.11.77-.2,1.11-.29-.04.09-.09.19-.13.28.47.24.94.67,1.41.68,1.5.01,3.01-.1,4.51-.22,1.34-.11,1.79-.65,1.34-1.84-.92-2.43-1.89-4.84-3.01-7.18-.65-1.37-1.62-2.58-2.44-3.86.06-.07.11-.14.17-.22,1.18.83,2.41,1.59,3.53,2.5,2.76,2.26,5.47,4.59,8.2,6.89,2.53,2.13,5.15,4.16,7.57,6.4,2.28,2.11,4.35,4.44,6.58,6.74-.05-.35-.01-.74-.17-1.02Z"/>
    <path class="cls-1" d="M116.06,73.28c-.77-2.11-1.84-4.11-2.92-6.08-.43-.78-1.18-1.41-1.88-2-.27-.23-.81-.14-1.23-.19-.03.37-.11.74-.07,1.1.05.39.16.8.34,1.16,1.11,2.31,2.34,4.56,3.34,6.91.97,2.28,1.76,4.64,2.52,7,.44,1.37.68,2.8,1.04,4.19.06.23.26.43.4.64.18-.05.37-.1.55-.15.06-1.6.42-3.25.13-4.77-.51-2.65-1.29-5.27-2.21-7.8Z"/>
    <path class="cls-1" d="M126.73,62.71c-1.84-3.15-10.2-9-12.85-8.64,4.23,2.84,8.54,5.74,12.85,8.64Z"/>
    <path class="cls-1" d="M107.55,38.12c-1.66.1-3.33.24-4.98.46-.24.03-.63.61-.59.88.26,1.57,1.17,2.76,2.46,3.62.28.19.8.18,1.15.07,1.38-.4,2.71-.87,3.56-2.2.42-.66,1.06-1.19,1.81-2.01-.68-.22-1.24-.42-1.81-.57-.53-.13-1.08-.28-1.61-.25ZM104.05,41.06c-.25,0-.46-.35-.46-.77s.2-.77.46-.77.46.35.46.77-.2.77-.46.77Z"/>
  </g>
</svg>