<?xml version="1.0" encoding="UTF-8"?>
<svg id="Layer_1" data-name="Layer 1" xmlns="http://www.w3.org/2000/svg" version="1.1" viewBox="0 0 57.01 48.57">
  <defs>
    <style>
      .cls-1 {
        fill: #536a57;
      }

      .cls-1, .cls-2 {
        stroke-width: 0px;
      }

      .cls-2 {
        fill: #707f72;
      }
    </style>
  </defs>
  <g id="animals">
    <path class="cls-2" d="M36.94,9.81c-.53.03-1.07.08-1.6.15-.08,0-.2.2-.19.28.08.5.38.89.79,1.16.09.06.26.06.37.02.44-.13.87-.28,1.14-.71.13-.21.34-.38.58-.65-.22-.07-.4-.13-.58-.18-.17-.04-.35-.09-.52-.08h0ZM35.82,10.76c-.08,0-.15-.11-.15-.25s.06-.25.15-.25.15.11.15.25-.06.25-.15.25Z"/>
    <g>
      <path class="cls-2" d="M39.68,21.12c-.25-.68-.59-1.32-.94-1.95-.14-.25-.38-.45-.6-.64-.09-.07-.26-.04-.4-.06,0,.12-.04.24-.02.35.02.13.05.26.11.37.36.74.75,1.47,1.07,2.22.31.73.57,1.49.81,2.25.14.44.22.9.33,1.35.02.07.08.14.13.21.06-.02.12-.03.18-.05.02-.51.13-1.04.04-1.53-.16-.85-.41-1.69-.71-2.51h0Z"/>
      <path class="cls-2" d="M43.11,17.72c-.59-1.01-3.28-2.89-4.13-2.78,1.36.91,2.74,1.84,4.13,2.78Z"/>
      <path class="cls-2" d="M49.04,8.82c-.54-.92-1.11-1.82-1.89-2.55-.98-.91-2-1.79-3.04-2.64-.97-.79-1.98-1.51-2.99-2.26-.37-.27-.73-.57-1.14-.77-.54-.28-.86-.12-1,.47-.13.55-.18,1.12-.28,1.68-.04.22-.14.42-.22.65-.76-.32-1.43-.62-2.12-.89-.43-.17-.86-.34-1.3-.46-.34-.09-.49.1-.4.44.07.26.14.52.25.76.14.32.32.63.48.95.03-.01.07-.02.1-.04,0-.11,0-.22-.03-.33-.05-.25-.13-.5-.16-.76-.03-.31.1-.41.36-.28.84.41,1.67.86,2.5,1.3.23.12.19.32.14.53-.16.67-.71,1.01-1.22,1.32-.97.6-1.92,1.21-2.76,2-.72.67-1.1,1.49-1.1,2.47,0,.41.06.86-.07,1.24-.22.67-.57,1.29-.87,1.93-.2.42-.5.79-.42,1.32.12.71.54,1.19,1.09,1.58.47.33.94.68,1.43.98.38.23.79.51,1.21.56.9.11,1.8-.02,2.66-.32.23-.08.39-.04.51.17.11.19.21.39.32.58.34.54.67,1.08,1.03,1.61.09.14.22.26.34.39.07-.08.07-.11.06-.13-.22-.8-.65-1.49-1.12-2.16-.4-.57-.38-.67.19-1.03.06-.04.13-.06.19-.1.2-.19.39-.12.56.04.82.73,1.64,1.46,2.44,2.2.32.29.58.64.9.94.15.14.35.24.52.35l.06-.07c-.06-.11-.11-.23-.19-.33-.96-1.13-1.86-2.32-3.13-3.16-.23-.15-.58-.31-.41-.77-.74.21-1.23-.37-1.86-.46.14.16.31.26.46.38.16.13.31.28.46.41-.52.58-.87.59-1.36.1-.13-.13-.28-.24-.42-.37-.04.03-.07.06-.11.09.17.28.35.56.53.85-.48.31-.98.4-1.52.4-1.42,0-2.59-.51-3.56-1.53-.22-.23-.23-.45-.05-.74.21-.33.39-.68.52-1.05.13-.37.06-.44-.32-.47-.55-.04-.6-.13-.31-.58.08-.12.16-.23.23-.36.51-.84.88-1.7.54-2.71-.03-.08-.04-.17-.03-.25.04-.28,0-.61.16-.82.35-.5.77-.96,1.21-1.39.81-.8,1.79-1.35,2.82-1.81.52-.23.98-.19,1.52.03.08-.14.18-.3.28-.46.04.15.07.3.12.47.13-.04.25-.06.36-.09-.01.03-.03.06-.04.09.15.08.3.22.45.22.48,0,.97-.03,1.45-.07.43-.04.58-.21.43-.59-.3-.78-.61-1.56-.97-2.31-.21-.44-.52-.83-.78-1.24.02-.02.04-.04.05-.07.38.27.77.51,1.13.8.89.73,1.76,1.48,2.64,2.21.81.68,1.66,1.34,2.43,2.06.73.68,1.4,1.43,2.11,2.17-.02-.11,0-.24-.05-.33h.02Z"/>
      <path class="cls-2" d="M25.59,6.78c.07-.04.31-.04.44,0,.27.08.5.38.79.45.88.27,1.74.75,2.44,1.34.39.67.27,1.56.72,2.2.16.52.08,1.12.26,1.65,0,.5.18,1.06.11,1.55-.13.4-.21.77-.3,1.18-.16.3-.52.44-.67.75-.09.17-.27.25-.38.4-.14.27-.28.58-.3.86-.03.86.81,1.41,1.1,2.15.1.33.29.73.18,1.09-.07.16-.17.39-.22.26-.12-.3-.14-.72-.29-1.01-.3-.44-.79-.77-1.27-.98-.25-.13-.51-.38-.8-.46-.37-.04-.87-.08-1.2.18-.39.25-.71.66-1.15.82-.92-.04-1.1,1.35-1.08,2.04,0,.12-.07.19-.19.16-.32-.11-.58-.43-.53-.78-.01-.08.04-.29-.08-.3-.43.24-.55.78-.62,1.25-.12.22-.47.3-.65.49-.12.11-.11.33-.19.46-.22.22-.56.35-.67.66-.11.24-.24.52-.26.79,0,.24.4.41.41.61,0,.05,0,.1-.03.15-.07.2-.19.43.05.56.19.1.42.31.63.33.23,0,.26-.37.43-.46.08-.04.19-.05.31-.05.79-.04.28.22-.03.43-.69.45-.76,1.36-.66,2.14.03.14.13.24.12.39-.07.23-.38.45-.49.67-.04.18.24.13.4.15.42.07.78-.35,1.12-.49.06-.02.13,0,.15.05.08.26-.36.36-.43.59-.1.19-.16.51-.17.74.04.12.06.09.12.12.5.12.91-.07,1.34-.08.24.09.24.41.29.63.05.46.51.61.88.74.4-.1.84-.33,1.15-.64.17-.19.37.04.56.05.3,0,.65-.15.88-.32.24-.36.3-.8.47-1.21.21-.41.87-.03,1.17-.28.39-.5.37-1.27.51-1.86-.08-.25-.18-.59.13-.74.29,0,.38.39.61.58.13.13.18,0,.19-.17.06-.6-.07-1.17-.33-1.72-.11-.33.49.08.59-.02.13-.07.21-.37.22-.52-.02-.23-.19-.42-.26-.64-.19-.71-.6-1.19-1.04-1.72-.04-.12.04-.23.1-.38.2-.46.43.32.6.45.43.42.72.78.85,1.39.1.4.38.77.18,1.18-.2.36.73.39.18.65-.07.04-.14.07-.2.08-.13.02-.28-.04-.31.1-.03.4-.08.93.1,1.31.02.09.05.17.01.27-.17.94-1.21,1.35-1.53,2.21-.13.31-.16.68-.46.88-.17.17-.4-.08-.58.1-.22.17-.24.52-.47.67-.27.14-.64.19-.91.32-.29.19-.07.66-.37.87-.2.2-.46-.02-.65.03-.33.26-.47.88-.84,1.11-.27-.03-.5-.48-.8-.49-.11-.01-.26-.02-.35.03-.13.06-.16.24-.31.27-.43.12-.79-.13-1.17-.29-.19-.05-.4,0-.58-.06-.33-.11-.53-.47-.85-.63-.7-.14-1.7.17-2.16-.59-.12-.33.22-.67.26-.99.22-.74.23-1.5.05-2.26-.06-.23-.03-.47.06-.69.23-.56.33-1.21.16-1.79-.03-.17.1-.35.04-.52-.11-.15-.48-.21-.66-.21-.11-.08,0-.32.03-.5.13-.42.38-.85.28-1.31-.06-.17-.3-.31-.4-.45-.08-.1-.02-.2-.05-.35-.08-.31-.17-.61-.26-.92-.08-.23-.1-.68-.43-.42-.23.11-.52.4-.75.39-.09-.02-.14-.15-.2-.24-.13-.19-.31-.37-.48-.52-.25-.15-.66-.13-.89.05-.15.23-1,.22-.39.5.2.05.27.24.25.38,0,.54.49,1.13.76,1.49.42.31.73.74,1.01,1.18.17.3-.16.61-.16.92-.05.89-.19,1.86.37,2.61.33.51.63,1.08.58,1.73-.05.29.04,1.5-.42.87-.09-.1-.2-.2-.3-.27-.05-.03.01,0,.07-.03.39-.2.09-.68,0-1-.27-1-1.12-1.69-1.64-2.56-.06-.13,0-.21.12-.16.1.04.2.05.28-.04.32-.44.26-1.01.05-1.49-.19-.43.13-.93-.06-1.33-.27-.58-.83-.94-1.28-1.39-.14-.13-.31-.19-.4-.35-.08-.14-.16-.25-.06-.31.25-.09.27-.35.08-.53-.93-.9-1.08-2.09-1.26-3.4-.07-.74-1.18-1.06-.86-1.89.03-.18.05-.36.15-.46.09-.09.26-.18.31-.1.1.22-.02.6.07.84.44.83.98,1.6,1.18,2.48.09.49-.03,1.05.07,1.54.1.23.31.5.49.68.19.11.46-.12.51-.3.03-.23-.22-.62.02-.9.1-.22.29-.47.3-.71-.09-.48-.23-1.02-.49-1.46-.12-.17-.39-.12-.54-.29-.15-.19-.41-.32-.4-.56.02-.1.08-.21.08-.33-.07-.73.28-1.05.96-1.19.32-.13.6.02.76.35.49,1.22,1.92.9,2.86,1.62.9.35,1.91.84,2.83.32.31-.08.61-.16.8-.45.18-.19.42-.45.16-.66-.1-.07-.2-.16-.16-.24.03-.09.15-.14.22-.22.07-.08.12-.2.23-.24.22-.08.47.18.73.13.78-.24,1.57-.49,2.33-.82.64-.09,1.21-.03,1.84.18.17.06.26.2.37.34.6.32,1.06-.61,1.28-1.11.13-.66.13-1.42-.08-2.06-.04-.19.03-.43-.11-.58-.14-.11-.4.08-.5.23-.13.2-.15.45-.36.61-.16.14-.32.36-.52.43-.16.04-.36.02-.58.03-.61-.07-1.17.22-1.77-.13-.4-.33-.99-.85-1.17-1.3-.07-.27-.14-1.06.05-1.51.37-.44.91-.66,1.41-.94.24-.11.48-.32.7-.22.23.12.48.15.73.05.3-.04.64.14.94.04.38-.27-1.08-.94-1.3-1.1-.56-.28-1.21-.44-1.75-.76-.06-.05-.11-.11-.1-.14l.02-.02h-.01ZM23.49,31.13s.1,0,.15,0c-.02-.11-.05-.22-.06-.33l-.11.02c0,.11.02.22.12.16.04.34.06.51.1.74l.37-.19c-.14-.17-.24-.28-.56-.39h0ZM26.96,17.53h-1.39c.22.16.32.23.42.31h.67c.09-.09.17-.17.25-.48v.16c.18-.02.34-.04.51-.07,0-.04,0-.08,0-.12-.17,0-.33.02-.44.19h0ZM19.99,17.72c-.01.4.55.44.85.47.85.02,1.7,0,2.55.01.36,0,.77-.03,1.09-.19.45-.37-.13-.37-.39-.22-.33.19-.6.27-.99.2-.11-.01-.2-.11-.18-.15.04-.07.37.08.5,0,.46-.26.93-.54,1.44-.73.58-.09,1.21.15,1.8.02.17-.07.23-.27.42-.3.34-.07.83.12,1.11-.16.15-.19.1-.58.07-.8-.08-.15-.3-.06-.45-.08-.29,0-.57,0-.85.07-.44.13-.76.37-1.22.21-.3-.14-.65-.25-.95-.07-.15.07-.24.24-.37.37-.24.19-.49.35-.67.61-.18.18-.34.38-.56.51-.11.04-.23.02-.33.08-.14.12-.24.34-.44.4-.51.14-1.16.04-1.62.07-.29-.02-.51-.25-.79-.32l-.02.02h0ZM26.17,10.44c-.36-.05-.58.04-.66.4.2.15.29.46.66.45v-.86ZM27.24,10.16c-.53-.4-.63-.37-.84.23.3.06.59.13.84-.23ZM21.25,25.79v.49h.29v-.49h-.29ZM24.9,17.38c-.04.17.08.25.36.23-.17-.11-.28-.17-.36-.23ZM20.04,18.56s.01.1.02.15c.09-.02.19-.04.28-.07,0-.03,0-.05-.01-.08h-.29,0ZM27.47,11.29h.06v-.17h-.06v.17Z"/>
      <path class="cls-2" d="M21.85.77c-.17,0-.44-.34-.65-.36-.37-.12-.74.14-1.1.17-.23,0-.43-.16-.67-.19-.67,0-1.4-.13-2.07-.18-.49-.03-.92.38-1.37.47-.77.09-1.57.13-2.38.25-.18.04-.28.18-.42.31-.14.15-.38.15-.58.21,0,.04.19.15.29.23.13.08.18.15.09.23-.67.49-1.34,1.16-1.73,1.9-.04.4-.21.72-.38,1.1-.21.52-.14-.62-.22-.59-.03,0-.06.19-.08.33-.07.46,0,.93-.08,1.39-.22.47-.76.76-1.08,1.23-.05.08-.02.18.02.27.04.09.03.17-.03.23-.2.16-.45.36-.63.58-.54.6-1.09,1.66-1.1,2.37,0,.14.03.2.1.09.19-.32.45-.57.86-.6.01,0,.04.03.06.04-.13.62-.48,1.28-.73,1.87-.09.27.04.61-.08.86-.23.21-.35-.36-.47-.51-.03-.03-.05-.09-.1-.06-.06.33-.06.86-.02,1.2.04.17.22.28.28.43.06.29.11.72-.21.88-.08.05-.17.13-.22.21-.12.34-.08.48-.36.1-.11-.13-.19-.27-.2-.44.02-1.48-.15-3.1.46-4.83.48-1.3,1.32-2.45,2.2-3.54.14-.22.06-.48,0-.72-.01-.12.06-.23.08-.38.13-.45.15-.93.35-1.36.4-.72.98-1.27,1.48-1.9.5-.53,1.16-.9,1.77-1.25.54-.24,1.17-.23,1.72-.38,1.54-.41,3.19-.57,4.76-.29.37.04.73.07,1.1-.06.18-.06.34-.12.5-.1.24.03.52.13.75.23.19.09.16.36.11.52h-.03s-.02.02-.02.02ZM7.3,11.61s.1-.01.15-.02c-.02-.09-.05-.19-.07-.28-.03,0-.05,0-.08.01v.29ZM12.12,1.83s.01.1.02.15c.09-.02.19-.04.28-.07,0-.03,0-.05-.01-.08h-.29,0ZM11.29,2.84h.06v-.17h-.06v.17ZM11,3.18h-.06v.17h.06v-.17ZM10.88,3.82v-.06h-.17v.06h.17Z"/>
      <path class="cls-2" d="M9.95,13.78c-.13-.1-.32-.18-.43-.3-.13-.67.4-1.24.59-1.84.08-.21.08-.42.09-.64.04-.04.15-.01.23-.02.06,0,.14-.02.19.02.06.04.06.15.1.22.21.5.17,1-.05,1.5-.03.2.04.43.01.64-.03,0-.11-.12-.16-.16-.12-.12-.23-.33-.37-.4-.25.23-.09.7-.19.99h-.03s0,0,0,0Z"/>
      <path class="cls-2" d="M12.17,11.14c-.05.13-.11.36-.2.49-.17-.14-.35-.44-.5-.61-.3-.32-.47-.73-.58-1.09-.03-.11.08-.2.13-.31.08-.08.04-.18,0-.28-.09-.22-.18-.43-.28-.65-.02-.05-.07-.15-.06-.15.07.04.22.22.31.3.3.32.64.61.92.94,0,.43.03.95.26,1.33v.03h0Z"/>
      <path class="cls-2" d="M18.6,15.58c-.3-.7-.53-1.25-.82-1.93v-.69c.35.39.31.95.82,1.13v1.49h0Z"/>
      <path class="cls-2" d="M13.92,8.05c.27-.03.4-.04.55-.06.15-.23.3-.45.45-.68.28.35-.1.57-.12.87-.11,0-.22.01-.33.02-.37.31-.32.76-.31,1.19h-.38c.05-.45.09-.87.14-1.33h0Z"/>
      <path class="cls-2" d="M18.27,15.74c-.67.04-.67.03-.98-.18v-1.36c.17.44.26.67.41,1.06.07.06.27.22.57.49h0Z"/>
      <path class="cls-2" d="M19.76,7.13c.11.24.2.44.3.67.03,0,.11.04.19.04.25,0,.5-.02.62.38-.4-.08-.78-.11-1.12-.22-.34-.12-.33-.39,0-.87h0Z"/>
      <path class="cls-2" d="M15.54,3.78c.14-.07.28-.14.55-.28.41.06.94.14,1.5.23-.28.28-.61.27-.97-.05-.31.06-.67.13-1.03.2-.02-.03-.04-.07-.05-.1Z"/>
      <path class="cls-2" d="M22.59,1.29c-.38.03-.54-.24-.69-.52.38-.03.54.24.69.52Z"/>
      <path class="cls-2" d="M20.12,2.88c.26.06.49.13.34.53-.14-.22-.24-.37-.34-.53Z"/>
      <path class="cls-2" d="M19.84,2.49h.34v.34c-.12-.12-.23-.23-.34-.34Z"/>
      <path class="cls-2" d="M19.67,2.32c-.12-.12-.23-.23-.34-.34h.34v.34Z"/>
      <path class="cls-2" d="M19.32,1.98c-.1,0-.2-.02-.34-.03,0-.12.01-.22.02-.33.16.1.28.18.4.26-.03.03-.06.06-.09.09h0Z"/>
      <path class="cls-2" d="M10.16,13.7c0,.11.02.22.03.33-.04,0-.07,0-.11.01-.02-.11-.05-.22-.06-.34.05,0,.1,0,.15,0h0Z"/>
      <path class="cls-2" d="M23.11,1.63c-.13-.03-.33.09-.34-.17.13.03.33-.09.34.17Z"/>
      <path class="cls-2" d="M7.21,15.6v.17h-.06v-.17h.06Z"/>
      <path class="cls-2" d="M10.25,14.4v-.17h.06v.17h-.06Z"/>
      <path class="cls-2" d="M20.81,3.53v.17h-.06v-.17h.06Z"/>
      <path class="cls-2" d="M19.84,2.49c-.06-.06-.12-.12-.17-.17.06.06.12.12.17.17Z"/>
      <path class="cls-2" d="M22.77,1.46c-.06-.06-.12-.12-.17-.17.06.06.12.12.17.17Z"/>
      <path class="cls-2" d="M18.74,6.08c-.13-.3-.48-.4-.72-.52-.12-.11-.12-.31-.31-.47-.14-.1-.26-.31-.41-.36-.56-.06-1.08.31-1.41.73-.48.56-.35,1.24-.32,2.02,0,.11.18,0,.27,0,.1-.03.22-.06.29-.08h0s.04,0,.04,0c.41.21.95.09,1.39.1.08-.07.04-.23.12-.3.12-.05.35.02.46-.03.16-.13.31-.3.44-.42.11-.13.29-.24.35-.38-.01-.08-.12-.19-.17-.28ZM17.33,6.39c-.15,0-.27-.12-.27-.27s.12-.27.27-.27.27.12.27.27-.12.27-.27.27Z"/>
      <path class="cls-2" d="M25.53,4.26c-.09-.28-.32-.53-.32-.84-.05-.34.09-.81-.35-.89-.11-.04-.24-.06-.3-.14-.13-.14-.02-.45-.15-.56-.2-.09-.44-.02-.64-.05-.2,0-.45-.14-.63-.11.05.45.93.23,1.13.57.05.11.02.26.1.33.07.08.21.11.3.19.14.1.22.35.02.41-.21.02-.44,0-.66,0-.23,0-.44,0-.51.24-.05.12-.12.32.07.26.19-.06.39-.32.59-.29.25.1.58.2.71.48.23.49-.07.7-.05.09.03-.11-.03-.09-.21-.09-.15,0-.32-.02-.45.04-.21.18-.4.49-.52.72.08.31.55.6.76.86.1.09.18.21.28.23.22.04.35-.2.31-.4-.03-.46.18-.42.15.04,0,.14-.14.26-.17.4-.02.31-.15.72-.08,1.02.05.08.45.07.56.03h0s.03-.02.03-.02c.05-.82.02-1.7,0-2.53ZM24.31,5.19c-.13,0-.23-.11-.23-.23s.1-.23.23-.23.23.11.23.23-.11.23-.23.23Z"/>
    </g>
  </g>
  <g id="stethoscope">
    <path class="cls-1" d="M56.42,43.38c-1.34-1.97-4.03-1.88-5.66.13-.18.23-.53.46-.81.46-2.59,0-5.18-.18-7.77-.08-2.75.1-5.5.37-8.24.67-2.29.26-4.57.68-6.85,1.03-2.99.46-5.97.94-8.96,1.38-2.61.38-5.24.78-7.89.58-1.56-.12-3.13-.27-4.65-.6-1.37-.29-2.65-.88-3.64-1.96-1.35-1.48-1.16-3.48.59-4.44,1.89-1.04,4.03-1.21,6.12-.86,2.04.34,4.05.94,6.06,1.48,1.03.27,2.04.64,3.06.97,1.55.49,3.08,1.05,4.65,1.45,1.11.28,2.26.44,3.41.5,1.13.06,2.06-.41,2.45-1.57.29-.88.92-1.36,1.71-1.74,1.6-.77,3.26-1.46,4.73-2.42,3.08-2.01,6.24-4,7.49-7.79.04-.13.16-.24.25-.35,1.13-1.45,2.28-2.88,3.38-4.35.67-.98,2.32-3.32,2.92-4.35,1.84-3.19,3.22-6.5,2.97-10.3-.09-1.37-.98-2.81-2.22-3.19.19.25.37.4.46.59.38.83.93,1.64,1.05,2.51.39,2.79-.61,5.39-1.64,7.89-.69,1.69-1.88,3.17-2.82,4.76-.22.38-.67.83-.83,1.25-.76.99-1.47,2.02-2.26,2.98-.57.69-1.13,1.66-1.88,1.86-1.19.33-1.84,1.05-2.58,1.88-2.08,2.35-4.56,4.25-7.3,5.77-1.46.81-2.98,1.69-4.8,1.01-3.08-1.15-5.68-3.04-8.08-5.24-1.31-1.2-2.06-3.04-4.01-3.5-1.45-1.66-3.06-3.2-4.32-4.99-1.28-1.82-2.3-3.84-3.29-5.84-.7-1.41-1.38-2.9-.93-4.59.09-.35-.02-.76-.04-1.14h-.26c-.4,1.17-.47,2.36-.27,3.6.4,2.41,1.71,4.4,2.99,6.37.93,1.43,2.03,2.75,3.08,4.11,1.05,1.37,2.58,2.45,2.65,4.41,0,.1.13.18.2.28,1.57,2.41,3.64,4.33,6.06,5.82,2,1.23,4.13,2.26,6.24,3.32.69.34.58.73.25,1.17-.58.76-1.5.92-2.29.75-2.15-.47-4.27-1.08-6.39-1.7-1.72-.51-3.39-1.18-5.12-1.68-1.19-.35-2.42-.57-3.64-.79-2.65-.49-5.26-.37-7.74.81-2.15,1.03-2.67,3.63-1.07,5.51,1.87,2.2,4.39,3.14,7.16,3.27,3.07.15,6.15.14,9.2-.43,2.24-.42,4.53-.64,6.79-.98.92-.14,1.83-.4,2.74-.55.65-.11,1.31-.11,1.96-.21,2.78-.4,5.55-.95,8.34-1.21,3.85-.35,7.72-.76,11.6-.27.89.11,1.62.4,1.82,1.33.29,1.34,1.21,2.04,2.41,2.32,1.36.31,2.63-.02,3.42-1.31.76-1.23.89-2.53.05-3.77h0ZM53.64,47.43c-1.21,0-2.19-.98-2.19-2.19s.98-2.19,2.19-2.19,2.19.98,2.19,2.19-.98,2.19-2.19,2.19Z"/>
    <path class="cls-1" d="M53.65,46.38c.76,0,1.15-.4,1.14-1.13,0-.66-.51-1.17-1.13-1.15-.63.02-1.17.52-1.17,1.08,0,.74.46,1.21,1.15,1.21h0Z"/>
  </g>
</svg>